<svg xmlns="http://www.w3.org/2000/svg" version="1.1" xmlns:xlink="http://www.w3.org/1999/xlink" xmlns:svgjs="http://svgjs.com/svgjs" width="512" height="512" x="0" y="0" viewBox="0 0 468.85 468.85" style="enable-background:new 0 0 512 512" xml:space="preserve" class=""><g><path fill="#52528c" d="M156.453 396.495c-37.53 3.59-69.87 1.44-69.87 1.44-40.52-50.54-45.97-95.08-43.88-122.55 1.39-18.22 6.09-28.94 6.09-28.94 103.558 45.566 85.768 37.74 100.76 44.33 6.1 20.491 28.2 103.683 6.9 105.72z" data-original="#52528c"></path><path fill="#404077" d="M133.113 320.295c-44.2-3.75-73.54-26.46-90.41-44.91 1.39-18.22 6.09-28.94 6.09-28.94l89.43 39.35c27.726 23.528 30.705 37.535-5.11 34.5z" data-original="#404077"></path><path fill="#52528c" d="M131.023 296.565c-75.03-20.69-106.11-45.19-92.91-108.54 5.33-25.59 13.74-41.67 22.71-51.7 19.08-21.36 40.73-15.32 40.73-15.32 16.521 25.175 39.293 60.634 56.7 88.72 11.114 17.959-7.388 92.304-27.23 86.84z" data-original="#52528c"></path><path fill="#404077" d="M129.423 241.425c-54.28-29.44-66.35-77.89-68.6-105.1 19.08-21.36 40.73-15.32 40.73-15.32s15.96 24.32 34.34 53.17l6.2 17.92s11.8 16.44 19.47 32.2c16.401 33.678.265 34.708-32.14 17.13z" data-original="#404077"></path><path fill="#52528c" d="M174.953 178.825c6.211 14.913-22.368 59.226-32.86 50.05-25.82-22.61-55.4-58.89-53.88-105.65 1.55-47.72 26.58-64.18 47.34-69.57 15.04-3.92 27.83-2.04 27.83-2.04l14.68 25.8s-16.46 69.39-3.11 101.41z" data-original="#52528c"></path><path fill="#404077" d="M174.953 178.825c1.92 4.61.51 12.03-2.66 19.81-3.15-1.85-6.7-4.45-10.68-7.88-46.76-40.35-34.71-107.03-26.06-137.1 15.04-3.92 27.83-2.04 27.83-2.04l14.68 25.8s-16.46 69.39-3.11 101.41z" data-original="#404077"></path><path fill="#52528c" d="M274.144 29.371s-57.826-24.91-99.194 0c-37.239 22.424-35.188 93.509-9.423 136.353 2.857 4.75 108.617-136.353 108.617-136.353z" data-original="#52528c"></path><path fill="#fbf5f7" d="m277.123 289.575 5.42 5.65-.37 2.97c16.6 33.534 9.554 19.3 32.04 64.73 3.344 36.775 1.522 16.763 9.46 103.91-169.366 0-104.864-.002-289.99.01 58.48-306 181.66-385 181.66-385l3.76 4.56c20.3-11.5 42.43-14.35 56.79-14.8 9.43-.3 15.5.44 15.5.44 13.323-.879 39.89 72.681 39.89 102.51 0 .155 18.317 21.113 28.21 31.79l-82.37 83.23z" data-original="#fbf5f7"></path><path fill="#ede3e7" d="m359.493 206.345-1.95 1.97-20.41-1.97s-38.16-23.27-66.01-80.61c-11.23-23.14 16.04-12.67 52.56 8.04 4.55 15.54 7.6 30.65 7.6 40.78 0 .155 18.317 21.113 28.21 31.79z" data-original="#ede3e7"></path><g fill="#ede3e7"><path d="M316.973 393.275c-47.65-13.24-68.4-78.13-68.4-78.13-55.1-9.53-63.4-59.81-63.4-59.81 33.05 44.18 64.03 40.01 77.71 34.99 0 0 15.67 15.66 32.66 34.88l18.67 37.72z" fill="#ede3e7" data-original="#ede3e7"></path><path d="M275.893 71.605c-5.75 27.19-34.62 71.82-34.62 71.82s-149.67 104.06-58.73 323.41l-148.86.01c58.48-306 181.66-385 181.66-385l3.76 4.56c20.3-11.5 42.43-14.35 56.79-14.8z" fill="#ede3e7" data-original="#ede3e7"></path><ellipse cx="245.569" cy="204.992" rx="33" ry="36.5" fill="#ede3e7" data-original="#ede3e7"></ellipse></g><ellipse cx="243.781" cy="213.555" fill="#52528c" rx="17.437" ry="19.287" data-original="#52528c"></ellipse><path fill="#fbf5f7" d="m387.949 300.871-126.226-39.672s-7.055 99.245 63.891 107.295c70.946 8.051 62.335-67.623 62.335-67.623z" data-original="#fbf5f7"></path><path fill="#52528c" d="m375.629 303.017-87.482-48.241s-2.683 79.906 42.936 91.177 44.546-42.936 44.546-42.936z" data-original="#52528c"></path><path fill="#f79fb2" d="M390.483 378.755v68.5s-6.48 19.59-30.99 19.59c-23.91 0-53.52-15.27-45.21-129.55-6.81-5.79-11.85-13.62-15.58-22.15 0 0 19.15-.62 33.17 13.49 0 0 7.45-.62 17.03 1.07 17.31 3.06 41.58 13.65 41.58 49.05z" data-original="#f79fb2"></path><path fill="#fbf5f7" d="M427.197 278.235c6.49-14.78 7.97-29.21 7.97-29.21-8.023-19.77-20.413-27.532-22.03-29.11-31.17-23.29-76-13.57-76-13.57l-53.936 41.929c12.606 23.298 45.318 70.887 102.646 71.981 75.99 1.45 39.75-38.57 39.75-38.57.314-.694 1.594-3.437 1.6-3.45z" data-original="#fbf5f7"></path><path fill="#52528c" d="M358.774 299.774s-29.079-10.476-23.748-56.033 43.619-18.764 48.95 15.093-25.202 40.94-25.202 40.94zM435.167 249.025s-1.48 14.43-7.97 29.21c-.006.013-1.29 2.766-1.6 3.45-7.17-4.83-18.99-19.87-15.54-49.39.6-5.11 1.66-9.2 3.08-12.38 1.854 1.809 14.049 9.444 22.03 29.11z" data-original="#52528c"></path><path fill="#ede3e7" d="M286.519 61.79c31.578-28.42 24.757-78.946 49.088-31.578 24.332 47.367-16.326 92.367-16.326 92.367l-48.157 3.158c.001-.001-16.183-35.526 15.395-63.947z" data-original="#ede3e7"></path><path fill="#52528c" d="M243.281 68.396s17.38 65.787 73.992 90.288c5.879 2.544 16.747 5.589 23.387 7.101 70.579 16.059 74.717-44.82 48.801-38.661-25.377 6.03-31.203-10.289-31.435-10.973-.005-.011-.006-.02-.006-.02-12.696-87.54-106.453-93.833-106.453-93.833z" data-original="#52528c"></path><path fill="#fae26b" d="M317.273 158.684c18.193-29.487 131.405-181.553 70.823-149.177S267.069 110.561 267.069 110.561s-4.523 40.745 50.204 48.123z" data-original="#fae26b"></path><path fill="#fbf5f7" d="M279.166 26.208c-30.294-58.975-21.801 3.932-61.117 39.316-39.317 35.385-19.167 79.616-19.167 79.616s5.298 14.545 23.945 16.553l36.013-20.485c-.001.001 50.619-56.025 20.326-115z" data-original="#fbf5f7"></path><path fill="#ffc4df" d="M264.737 32.106s-6.136 22.607-23.463 49.637-16.345 58.975-16.345 58.975 69.787-13.383 39.808-108.612z" data-original="#ffc4df"></path><path fill="#fa8292" d="M345.983 362.255c-1.49-16.05-7.17-26.64-14.11-33.62 0 0 7.45-.62 17.03 1.07 5.42 23.55-2.92 32.55-2.92 32.55z" data-original="#fa8292"></path><path d="M210.569 204.992c0 21.229 15.701 38.5 35 38.5s35-17.271 35-38.5-15.701-38.5-35-38.5-35 17.272-35 38.5zm35-34.5c17.094 0 31 15.477 31 34.5s-13.906 34.5-31 34.5c-17.093 0-31-15.477-31-34.5s13.906-34.5 31-34.5z" fill="#000000" data-original="#000000"></path><path d="M243.781 234.842c10.718 0 19.438-9.55 19.438-21.287s-8.72-21.286-19.438-21.286-19.437 9.549-19.437 21.286 8.719 21.287 19.437 21.287zm0-38.573c8.513 0 15.438 7.755 15.438 17.286 0 9.532-6.925 17.287-15.438 17.287-8.512 0-15.437-7.755-15.437-17.287s6.924-17.286 15.437-17.286z" fill="#000000" data-original="#000000"></path><path d="M437.157 249.229a2.002 2.002 0 0 0-.136-.956c-5.022-12.374-12.642-22.443-22.646-29.93v.001c-16.174-11.861-35.746-16.244-55.891-16.065-3.51-3.841-13.123-14.444-25.206-28.463-.033-2.368-.22-5.036-.558-7.968 9.892 2.68 19.758 4.679 30.235 4.679 23.999 0 34.589-11.048 38.454-16.759 9.991-14.763 3.083-32.275-12.408-28.589-22.55 5.361-28.359-7.757-29.023-9.498a122.81 122.81 0 0 0-2.559-12.746c10.038-14.938 20.429-30.826 29.071-45.229 23.725-39.535 22.905-48.919 19.54-52.679-3.047-3.401-9.045-2.542-18.88 2.714-15.69 8.387-31.365 19.21-45.881 30.532a74.139 74.139 0 0 0-3.887-8.972c-7.571-14.742-12.353-20.534-16.979-20.534-6.889 0-9.623 11.778-17.299 26.933-6.664-3.488-13.829-6.48-21.454-8.97C277.708 18.721 268.339 0 260.245 0l-.18.002c-5.799.161-9.195 7.65-14.254 19.013-20.221-3.927-48.568-5.396-71.889 8.646-8.115 4.886-14.702 12.126-19.6 21.516-9.055.119-25.124 1.865-39.262 11.395-17.296 11.659-26.907 31.315-28.62 58.385-14.703 2.781-39.244 15.656-50.284 68.66-5.851 28.1-3.18 48.864 8.37 65.254-4.325 15.445-10.865 54.579 13.322 103.984-9.538 32.779-18.404 69.202-26.128 109.616a2 2 0 0 0 3.929.75c32.147-168.2 84.041-267.048 121.915-320.354l.005-.007c11.711-16.49 23.661-30.939 35.595-43.051a70.902 70.902 0 0 0-1.441 14.811c.121 15.272 4.843 26.237 5.31 27.284.508 1.332 6.426 15.717 25.581 17.779a2 2 0 0 0 .429-3.976c-9.958-1.072-18.118-6.165-22.338-15.392-.049-.108-4.898-10.977-4.982-25.89-.115-20.428 8.42-37.691 23.666-51.413 15.739-14.165 23.932-32.564 29.914-46 4.041-9.077 7.532-16.917 10.876-17.01 5.319-.242 14.762 18.355 17.21 23.121 12.841 25 12.093 51.431 1.177 77.82-8.623 20.846-21.083 34.788-21.208 34.927a2 2 0 0 0 2.969 2.68c.281-.311 3.976-4.441 8.714-11.494 5.493 11.963 18.271 25.528 47.702 29.571 3.474 1.472 8.106 2.95 11.805 4.042 1.275 9.769.231 10.049 1.224 11.2a1411.752 1411.752 0 0 0 23.448 26.564c-9.401.467-15.816 1.809-16.503 1.958a1.998 1.998 0 0 0-1.53 2.378 2.007 2.007 0 0 0 2.378 1.531c.433-.094 43.089-9.017 73.13 12.311-1.221 3.193-2.102 7.034-2.62 11.452-4.069 34.812 12.284 48.412 16.186 51.126 1.306 1.511 11.137 13.355 6.955 22.548-2.754 6.053-12.845 13.129-45.326 12.518-57.041-1.088-89.582-49.968-100.925-70.934a2 2 0 1 0-3.518 1.904 180.246 180.246 0 0 0 4.67 8.108c.025 26.472 6.153 63.075 26.107 80.809-.626 8.789-1.038 17.11-1.24 24.979-29.746-10.626-42.225-41.444-46.112-73.041-1.355-10.652-1.567-22.981-1.15-28.744a2 2 0 0 0-1.854-2.137c-1.084-.065-2.058.752-2.137 1.854-.046.658-.827 12.316.964 27.917-15.019 4.956-43.311 6.075-73.913-34.833a2 2 0 0 0-3.203 2.397c15.398 20.583 36.526 38.804 62.22 38.804a51.707 51.707 0 0 0 15.407-2.34c4.53 32.663 18.547 63.875 49.69 74.321-.482 29.562 2.159 52.418 7.988 68.91l2.8 30.788a2 2 0 0 0 3.984-.362l-1.738-19.115c8.327 14.868 20.108 21.311 35.565 21.311 25.658 0 32.819-20.752 32.889-20.962.153-.459.102 4.37.102-69.128 0-13.585-3.505-24.746-10.406-33.294 3.513-6.622 5.928-14.404 7.195-23.177 14.771.048 39.461-1.447 45.58-14.895 4.753-10.446-4.005-22.477-6.905-26.031 5.065-10.847 8.33-23.559 9.207-32.135zM59.535 351.109c-20.028-43.433-15.885-78.077-11.929-94.214 7.99 9.572 19.616 17.806 35.364 25.058-8.058 20.946-15.943 43.948-23.435 69.156zm24.882-72.893c-40.786-18.854-53.783-44.467-44.346-89.783 10.329-49.587 32.402-62.376 46.146-65.35-1.018 30.824 11.041 58.572 30.83 82.873-10.811 20.698-21.862 44.662-32.63 72.26zm34.659-76.11c-18.794-23.544-30.553-51.027-28.755-81.339 2.962-57.885 42.133-66.794 62.051-67.545-10.927 24.602-10.469 60.224 1.325 92.185-10.701 15.137-22.488 33.863-34.621 56.699zM216.71 64.038c-11.638 10.475-18.101 21.723-21.523 32.147-12.95 12.465-25.944 27.678-38.664 45.267-10.983-31.597-10.742-66.318.809-89.394 4.608-9.237 10.884-16.292 18.652-20.97 21.895-13.183 48.693-11.979 68.148-8.322-5.71 12.697-13.574 28.809-27.422 41.272zm103.651-51.27c4.089 0 11.507 14.552 13.464 18.362a69.47 69.47 0 0 1 4.109 9.77 512.81 512.81 0 0 0-12.299 10.098c-5.741-5-12.091-9.469-19.017-13.38 6.16-12.14 10.255-24.754 13.743-24.85zm-36.425 18.966c14.052 4.985 27.353 12.185 38.622 21.886-11.176 9.601-22.487 20.067-33.694 31.212 3.097-15.658 3.045-34.086-4.928-53.098zm32.328 124.788c-28.936-4.256-40.244-18.163-44.596-29.531 6.616-10.606 12.113-22.427 15.458-34.744 28.272-28.725 66.369-61.981 101.909-80.979 10.805-5.774 13.46-4.194 14.015-3.573 1.582 1.767 2.8 9.977-19.989 47.953-22.467 37.441-56.434 84.449-66.797 100.874zm3.978 1.199c6.01-9.395 19.984-29.325 34.142-50.282.65 2.911 1.208 5.884 1.646 8.896.368 3.678.309 15.132.132 20.536a2 2 0 1 0 3.998.13c.155-4.732.177-9.329.094-13.774 7.534 7.961 18.965 8.389 29.672 5.843 12.291-2.912 15.658 11.39 8.171 22.456-4.457 6.585-18.928 20.971-56.988 12.309-6.231-1.423-14.893-3.845-20.867-6.114zM290.259 263.81c19.209 28.652 46.387 51.518 80.872 57.118-1.3 4.611-3.042 8.634-5.194 12.006-14.165-6.791-29.364-6.546-33.298-6.347-12.339-11.921-27.913-13.295-32.614-13.429-7.369-17.569-9.291-38.024-9.766-49.348zm98.224 114.95v68.146c-.883 2.278-7.739 17.944-28.99 17.944-10.941 0-19.144-3.34-25.813-10.511-23.125-24.87-19.679-91.376-16.705-125.637a2 2 0 0 0-1.819-2.165c-1.106-.109-2.07.719-2.165 1.819a601.34 601.34 0 0 0-.384 4.632c-4.358-4.455-7.877-9.847-10.714-15.695 5.821.505 18.629 2.759 28.561 12.755.656 1.049 11.423 9.621 13.538 32.396a2 2 0 1 0 3.983-.369c-1.194-12.858-5.125-23.44-11.701-31.53 8.148.113 26.315 1.756 38.816 13.273 8.887 8.189 13.393 19.945 13.393 34.942zm-9.248-36.483c-2.731-2.761-5.858-5.228-9.747-7.473 2.362-3.772 4.246-8.241 5.631-13.318 3.335.407 6.708.662 10.12.746-1.131 7.523-3.137 14.251-6.004 20.045zm45.592-63.689c-8.01-6.763-15.573-22.194-12.784-46.06.419-3.567 1.083-6.692 1.975-9.344 8.281 6.756 14.715 15.512 19.102 26.12-1.098 8.817-4.178 20.453-8.293 29.284z" fill="#000000" data-original="#000000"></path><path d="M358.096 301.656c.354.126.739.156 1.13.066.323-.075 32.282-7.912 26.726-43.199-3.336-21.186-19.889-40.957-34.193-40.957-.103 0-.204.001-.306.003-5.757.114-15.804 3.636-18.413 25.939-2.834 24.216 4.034 38.695 10.295 46.577 6.877 8.66 14.443 11.456 14.761 11.571zm-21.084-57.682c1.155-9.874 4.796-22.407 14.736-22.407 11.077 0 26.954 16.633 30.252 37.58 4.626 29.381-18.87 37.342-23.082 38.523-3.815-1.701-26.594-13.625-21.906-53.696zM264.518 114.018c12.209-20.452 12.924-48.214 2.126-82.513-.596-1.9-3.314-1.846-3.838.077-.061.223-6.251 22.616-23.216 49.082-17.461 27.237-16.701 58.785-16.66 60.115a2 2 0 0 0 2.375 1.902c1.02-.195 25.121-5.057 39.213-28.663zm-37.574 24.116c.201-7.98 1.985-33.429 16.013-55.312 12.059-18.812 18.705-35.339 21.71-43.938 8.476 30.278 7.288 54.823-3.55 73.026-10.643 17.876-27.883 24.375-34.173 26.224z" fill="#000000" data-original="#000000"></path></g></svg>
